<mxfile host="Electron" modified="2024-01-16T05:45:06.592Z" agent="Mozilla/5.0 (Macintosh; Intel Mac OS X 10_15_7) AppleWebKit/537.36 (KHTML, like Gecko) draw.io/22.1.18 Chrome/120.0.6099.199 Electron/28.1.2 Safari/537.36" etag="ag0wJvL-UWw4ddktpj7I" version="22.1.18" type="device">
  <diagram name="ページ1" id="3ZlsUqXU5SmIIvWMBXU_">
    <mxGraphModel dx="921" dy="701" grid="1" gridSize="10" guides="1" tooltips="1" connect="1" arrows="1" fold="1" page="1" pageScale="1" pageWidth="827" pageHeight="1169" math="0" shadow="0">
      <root>
        <mxCell id="0" />
        <mxCell id="1" parent="0" />
        <mxCell id="ADXEEsySg-eswqSp0tY0-1" value="AWS Cloud" style="points=[[0,0],[0.25,0],[0.5,0],[0.75,0],[1,0],[1,0.25],[1,0.5],[1,0.75],[1,1],[0.75,1],[0.5,1],[0.25,1],[0,1],[0,0.75],[0,0.5],[0,0.25]];outlineConnect=0;gradientColor=none;html=1;whiteSpace=wrap;fontSize=12;fontStyle=0;container=1;pointerEvents=0;collapsible=0;recursiveResize=0;shape=mxgraph.aws4.group;grIcon=mxgraph.aws4.group_aws_cloud_alt;strokeColor=#232F3E;fillColor=none;verticalAlign=top;align=left;spacingLeft=30;fontColor=#232F3E;dashed=0;" parent="1" vertex="1">
          <mxGeometry x="92" y="240" width="480" height="310" as="geometry" />
        </mxCell>
        <mxCell id="ADXEEsySg-eswqSp0tY0-7" value="" style="sketch=0;points=[[0,0,0],[0.25,0,0],[0.5,0,0],[0.75,0,0],[1,0,0],[0,1,0],[0.25,1,0],[0.5,1,0],[0.75,1,0],[1,1,0],[0,0.25,0],[0,0.5,0],[0,0.75,0],[1,0.25,0],[1,0.5,0],[1,0.75,0]];outlineConnect=0;fontColor=#232F3E;fillColor=#7AA116;strokeColor=#ffffff;dashed=0;verticalLabelPosition=bottom;verticalAlign=top;align=center;html=1;fontSize=12;fontStyle=0;aspect=fixed;shape=mxgraph.aws4.resourceIcon;resIcon=mxgraph.aws4.s3;" parent="ADXEEsySg-eswqSp0tY0-1" vertex="1">
          <mxGeometry x="330" y="154" width="78" height="78" as="geometry" />
        </mxCell>
        <mxCell id="ADXEEsySg-eswqSp0tY0-14" value="" style="sketch=0;points=[[0,0,0],[0.25,0,0],[0.5,0,0],[0.75,0,0],[1,0,0],[0,1,0],[0.25,1,0],[0.5,1,0],[0.75,1,0],[1,1,0],[0,0.25,0],[0,0.5,0],[0,0.75,0],[1,0.25,0],[1,0.5,0],[1,0.75,0]];outlineConnect=0;fontColor=#232F3E;fillColor=#ED7100;strokeColor=#ffffff;dashed=0;verticalLabelPosition=bottom;verticalAlign=top;align=center;html=1;fontSize=12;fontStyle=0;aspect=fixed;shape=mxgraph.aws4.resourceIcon;resIcon=mxgraph.aws4.lambda;" parent="ADXEEsySg-eswqSp0tY0-1" vertex="1">
          <mxGeometry x="88.5" y="154" width="78" height="78" as="geometry" />
        </mxCell>
        <mxCell id="ADXEEsySg-eswqSp0tY0-17" style="edgeStyle=orthogonalEdgeStyle;rounded=0;orthogonalLoop=1;jettySize=auto;html=1;entryX=0;entryY=0.75;entryDx=0;entryDy=0;entryPerimeter=0;" parent="ADXEEsySg-eswqSp0tY0-1" source="ADXEEsySg-eswqSp0tY0-14" target="ADXEEsySg-eswqSp0tY0-7" edge="1">
          <mxGeometry relative="1" as="geometry">
            <Array as="points">
              <mxPoint x="186" y="213" />
            </Array>
            <mxPoint x="185.5" y="198" as="sourcePoint" />
          </mxGeometry>
        </mxCell>
        <mxCell id="ADXEEsySg-eswqSp0tY0-18" value="S3&lt;br&gt;※データは残さない" style="text;html=1;strokeColor=none;fillColor=none;align=center;verticalAlign=middle;whiteSpace=wrap;rounded=0;" parent="ADXEEsySg-eswqSp0tY0-1" vertex="1">
          <mxGeometry x="314.25" y="232" width="109.5" height="30" as="geometry" />
        </mxCell>
        <mxCell id="ADXEEsySg-eswqSp0tY0-19" value="Lambda&lt;br&gt;差分処理" style="text;html=1;strokeColor=none;fillColor=none;align=center;verticalAlign=middle;whiteSpace=wrap;rounded=0;" parent="ADXEEsySg-eswqSp0tY0-1" vertex="1">
          <mxGeometry x="77" y="232" width="101" height="30" as="geometry" />
        </mxCell>
        <mxCell id="IU0z4IoQcwbL9uTgJuqE-1" value="" style="outlineConnect=0;dashed=0;verticalLabelPosition=bottom;verticalAlign=top;align=center;html=1;shape=mxgraph.aws3.ecr;fillColor=#F58534;gradientColor=none;" vertex="1" parent="ADXEEsySg-eswqSp0tY0-1">
          <mxGeometry x="93" y="20" width="69" height="72" as="geometry" />
        </mxCell>
        <mxCell id="IU0z4IoQcwbL9uTgJuqE-3" value="ECR" style="text;html=1;strokeColor=none;fillColor=none;align=center;verticalAlign=middle;whiteSpace=wrap;rounded=0;" vertex="1" parent="ADXEEsySg-eswqSp0tY0-1">
          <mxGeometry x="101.5" y="92" width="52" height="30" as="geometry" />
        </mxCell>
        <mxCell id="IU0z4IoQcwbL9uTgJuqE-4" style="edgeStyle=orthogonalEdgeStyle;rounded=0;orthogonalLoop=1;jettySize=auto;html=1;entryX=0.5;entryY=0;entryDx=0;entryDy=0;entryPerimeter=0;" edge="1" parent="ADXEEsySg-eswqSp0tY0-1" source="IU0z4IoQcwbL9uTgJuqE-3" target="ADXEEsySg-eswqSp0tY0-14">
          <mxGeometry relative="1" as="geometry" />
        </mxCell>
        <mxCell id="IU0z4IoQcwbL9uTgJuqE-8" style="edgeStyle=orthogonalEdgeStyle;rounded=0;orthogonalLoop=1;jettySize=auto;html=1;" edge="1" parent="ADXEEsySg-eswqSp0tY0-1" source="IU0z4IoQcwbL9uTgJuqE-6" target="ADXEEsySg-eswqSp0tY0-14">
          <mxGeometry relative="1" as="geometry" />
        </mxCell>
        <mxCell id="IU0z4IoQcwbL9uTgJuqE-6" value="" style="sketch=0;points=[[0,0,0],[0.25,0,0],[0.5,0,0],[0.75,0,0],[1,0,0],[0,1,0],[0.25,1,0],[0.5,1,0],[0.75,1,0],[1,1,0],[0,0.25,0],[0,0.5,0],[0,0.75,0],[1,0.25,0],[1,0.5,0],[1,0.75,0]];outlineConnect=0;fontColor=#232F3E;fillColor=#E7157B;strokeColor=#ffffff;dashed=0;verticalLabelPosition=bottom;verticalAlign=top;align=center;html=1;fontSize=12;fontStyle=0;aspect=fixed;shape=mxgraph.aws4.resourceIcon;resIcon=mxgraph.aws4.eventbridge;" vertex="1" parent="ADXEEsySg-eswqSp0tY0-1">
          <mxGeometry x="214" y="92" width="78" height="78" as="geometry" />
        </mxCell>
        <mxCell id="IU0z4IoQcwbL9uTgJuqE-9" style="edgeStyle=orthogonalEdgeStyle;rounded=0;orthogonalLoop=1;jettySize=auto;html=1;entryX=1;entryY=0.5;entryDx=0;entryDy=0;entryPerimeter=0;" edge="1" parent="ADXEEsySg-eswqSp0tY0-1" source="ADXEEsySg-eswqSp0tY0-7" target="IU0z4IoQcwbL9uTgJuqE-6">
          <mxGeometry relative="1" as="geometry">
            <Array as="points">
              <mxPoint x="310" y="193" />
              <mxPoint x="310" y="131" />
            </Array>
          </mxGeometry>
        </mxCell>
        <mxCell id="IU0z4IoQcwbL9uTgJuqE-10" value="Event Bridge" style="text;html=1;strokeColor=none;fillColor=none;align=center;verticalAlign=middle;whiteSpace=wrap;rounded=0;" vertex="1" parent="ADXEEsySg-eswqSp0tY0-1">
          <mxGeometry x="202.5" y="170" width="101" height="30" as="geometry" />
        </mxCell>
        <mxCell id="ADXEEsySg-eswqSp0tY0-4" style="edgeStyle=orthogonalEdgeStyle;rounded=0;orthogonalLoop=1;jettySize=auto;html=1;entryX=0;entryY=0.5;entryDx=0;entryDy=0;" parent="1" source="ADXEEsySg-eswqSp0tY0-2" target="ADXEEsySg-eswqSp0tY0-3" edge="1">
          <mxGeometry relative="1" as="geometry" />
        </mxCell>
        <mxCell id="ADXEEsySg-eswqSp0tY0-2" value="" style="dashed=0;outlineConnect=0;html=1;align=center;labelPosition=center;verticalLabelPosition=bottom;verticalAlign=top;shape=mxgraph.weblogos.github" parent="1" vertex="1">
          <mxGeometry x="182" y="90" width="75" height="75" as="geometry" />
        </mxCell>
        <mxCell id="ADXEEsySg-eswqSp0tY0-5" style="edgeStyle=orthogonalEdgeStyle;rounded=0;orthogonalLoop=1;jettySize=auto;html=1;" parent="1" source="ADXEEsySg-eswqSp0tY0-3" target="ADXEEsySg-eswqSp0tY0-1" edge="1">
          <mxGeometry relative="1" as="geometry" />
        </mxCell>
        <mxCell id="ADXEEsySg-eswqSp0tY0-3" value="" style="shape=image;verticalLabelPosition=bottom;verticalAlign=top;imageAspect=0;aspect=fixed;image=data:image/png,iVBORw0KGgoAAAANSUhEUgAAAZAAAAGDCAMAAAAyI7bLAAAByFBMVEUAAABaTeVYTuQAAAAAAAAAAAAAAAAAAAAAAABSPtdbTOQAAABcTeMAAAA/P64AAAAAAAAAAAAVD2EAAAAAAAAAAAAAAAAAAAAAAAAAAAAAAAAAAAAAAAAAAAAAAAAAAAAAAAAAAAMAAABELc0AAAAAAAAAAAAAAAAAAAAAAAAAAAAAAAAAAAAAAAAAAAAAAAAAAAAAAANbTeYAAAAAAAAAAAAAAABaTOUAAAAAAABbTOUAAAAAAAAAAAAAAAAAAAAAAAA5KcIAAAAAAAAAAAAAAABaTOVbTOYAAABQQ99aTOUAAAAAAAAAAAAAAABZS+QAAABZSeNbTOUAAAAAAAAAAABWR+BUR+EAAABaS+RYSONYSuJVRuEAAABaTORYSeMAAAAAAABXR+RaTeY/P7I+PrFaTORZSuIjI6A+PrE+PrFZS+MAAAAAAABaS+RZS+RYSeJQRdVaTORaTOVYS+RWReFaS+RaTOU+PrBaTOU+PrA8PK5XRuI2Nqs+PrE+PrFZS+QAAABZTOQ5Oa9aTOQ9PbA9PbA4OKs+PrEAAAAAAABWSeM8PK09PbE+PrA9Pa9ZTOQ9PbAAAAA8PK05ObFAQLIAAABcTuUAhwItAAAAlXRSTlMA0Y1cwTDp9/MKqZ2JLFT9qYcChcV2IpnlYjwQCAwYrxQGyQbv3RzTKPt4vZ9OdBIKBPvh2TTr681W97lwZFImiQR+lUpE898gEOXPkY0ydlhW72izbCYep5s6NhrVyU5GOCz7++vXagzhx4N6QJNkQg7Nu14Uwa+vo5NGMBb31belfDSzg2oe86OhSCq5n1zRdGA8JDj1ElIAABcZSURBVHja7Z35Q9NIG4CjlLaItVhcioWe9IRFrlJuUEBAueUSkEtRPEC87/tY7939dpfk3/2SlraTNnfaZArv84OWJk0meTKZzDtHCAIAAAAAAAAAAAAAAAAAAAAAhKnZWi7ROw0AQsmxzufLeicCSFNyjKLa7l7QOxlAEkYIRQ1PgxJMSAihmj+t1eidFIBhXwhFDR27ondaAAIRQhclk6BEfxAhVPPq7n2903PoQYVQ1LXVBb0TdNhhC6GLkrvzeifpcJMphKJu3IH7lo5kC6FrJfdseifr8MIlhGpeXIJaiU5wCqGoi4uP9U7ZIYVHCEV1PoIosB7wCqE6361B6a49/EIo6tJTeATWHCEhdK3kAxQlGiMshK6670JgXlNEhNCZZBUaFLVEVAhdut9dOKd3Mg8PEoQw0RS4b2mFJCFUc9saRFO0QZoQWsnzZYimaIFUIRTVtgi1Eg2QLoSuKG5BJsk7coRQ1578gNI9z8gSwkRTXumd4gOOTCF0reQ43LfyiWwhFPX3LgTm84cCIVTn6g+oleQLJUKYWsljUJIflAmhqIvQzTE/KBVCNQ9PQ+meBxQLoXl3FZTkHDVCqLa7V/VO/4FDlRCmKIFH4NyiUghFQYNiblEthDqu9yEcLEAIZoAQzAAhmJEzIXd28eia8t8vvVOgjpwJOdr8bk3/R+D/Pt/a0zsN6sidEIq6dEzveuL/3u7tgZDEho7G/9CzA9e5f2/t7YEQthDqwSOdlNg+/vl1D4RkCaE6n9zT4zhuvkhkDxCSKYRmcUHr1qubL6/v7YEQPiHUsLatV+dePtvcAyECQqjmG4+0q5V8eYZkDxDCKYTm6SttWq9e/8HWAUJ4hFCXjmpQK6n56/beHgiRJIS61pb31quPt9/sgRCpQmhWl/I5svq/z9f39kCIHCHU0LGlfKX8fjxOAkLkCWHmTclP4f7vrc09EKJACEXdyH00xfbxTz4dIERUCNX5cDq3tZIv6TgJCFEghOZpLjPJiet7eyBEnRCqbTJHszmee/lrbw+EqBZCNR/ZykWt5Oez63sgJBdCKKYvsNqi5Ob/vorpACHShVCX7qoaofiaI04CQtQIoa4N31FeK/l4W0L2ACGyhNDcuKesKPnyYlOSDhAiUwjV+fye/FzyhS9OAkJUC2GKErmZ5OVbqdkDhCgQQtdK5MxT1/TxmXQbIESREKr54SOp962fgnESEJIbIXRR8lRaR4g/ZOoAIQqF0ErEoyk3X0qqeYCQnAihrj0QiaZ8FI+TgJAcCqF5IDBC8ebnNwp0gBBVQqihuzwBrtd/Sa95HCQh5yabdRVCUdzRlJe/lGWPghdCEMur13QVQtdKsqY8ff2nUhsHQAhxf+uBvkKozmOsaMoX+Y+6B0oIYVuYbNNVCDPlabpW8tdtGXGSAymEZv5hp65C6NJ9N7Gd1wpqHgdQCEFMP9RXCHUksZ0Tan0cFCHE4+mLIAQvHj+/BELw4scx+bUSEJJPSu7dACF4cf/OMAjBCturo20gBCvOLR8BIZghI5oCQjRhYVJqUQJCNOKKxKo7CNGM6YdSaiUgRDseT0u4b4EQLbl/VzQKDEK05d4xkQAXCNGYkjXhR2AQoj2TQoF5EKI9tld320AIVpxbfgdCMGP6BnetBIToxQJ3UQJCdMO28JyjTx0I0ZMfq1kVRRCiKxd2M9t4QYjO1NxhZxIQojvLn9BoCgjRn5I1pK0EhGDBbhsIwYv5xYsgBCtqlhLdHEEIPkxfvAZCsOLxh2EQghW2+aMfEp9ACC7sjw4EIZgBQjADhGAGCMGMNZnDSvIlZPOZ3mcCE2wLKmdNyY2Q6ye0edNSQbD2RPFg9xwJufXipt4nASuuPJIz0ifnQr6++IjHG6sx4sJxxTPZqBby9qPW77MsCJaeKhnsrlrI5tv/wd2KmwtrT7QXcv3zT8ge/GwpySQqhGz++qL3IePHq3nkEr26KH/eFMVC3tz+Cx51szn+9xZyWmqWnmol5Pofr/U+diw5SlF/L6FX6tqwvAcuZUK+/gllOTdMLKttcRm5by3ckTVvihIhb569hJoHD4ng4vBx5ATZ5hdlTC6kQMjbE5A9eElGey+uoa+/XVodypuQ6y+gLBcgFX7v/PQDySUXdqVO0iFTyNcXH/U+ZLxB2kMuHUNffPD4g7RaiTwht/+F7CEMq4Hq0u5jZNGrd1KUyBCyeesPKDzEyGgxfDKN1krWJMybIl3I9c//6X20BUBmE27ng6vI0pJHolV3yUKefYGwlQSy29Qv3UGjKQti0RRpQt7cPuHV+1ALA65ODkcmkXd/nVsSnvJUkpBbECeRCnevk+F76DpLF1UKgRZa6fB0AxpiRVMufBhWLuTNs3/1PshCgrdf1vBRpFZiu3p0SKGQ2yfgbiUHgY5ybdNoBPAVz4wQwkLefIaKoDwEey6yoinE1qpcIdf//Kn38RUcwl1J254itRIb5yQd/EI2f/0LhblsxPr2tm2hr7+d/zQkVcjmLWihVYJ4Z+vVR8hrJGvW3jVLEnLrM3RgUISE3u9Dq0vIDy5kTHnKLeTFT2gSVIak4QhDx6+gtZLFNmEhm7df6n1YhYvE8SFHJtFaydLzIQEhbyFOogKpA3aaj6DRlJqlYV4hn0GHGmSMoHqORlOIZN8UtpCvv6DmoQ45Q9qGj86nf2i7erwtU8jmbehPohZ5YwzbppGf2q4+YQt5Ay206pE76PMJ+vrbmt3V5pQQiJPkBNmjcNuOvUJ+vjD5LvHh5bOXUDHPBQqGRQ99gEpf/lA0Tv3vRxfU7xngRNnEAZ3v7qnfNcCF4pkcFq+o3zmQjfKpNW5sLeid+IOIirlOmh9Mq98/kIG6yWceXoUHrhyjcjagi8evqk8DgKB6eqaHeh/BASNX82UBOQKEYAYIwQwQghkgBDNACGaAEMwAIZgBQjADhGAGCMEMEIIZIAQzQAhmgBDMACGYAUIwA4RgBgjBDBCCGSAEM0AIZoAQzAAhmAFCMAOEYAYIwQwQghkgBDNACGaAEMwAIZgBQjADhGAGCMEMEIIZIAQzLhyX//pbEJJPzi3dlfzOQhCiDUvDIAQvaiZlvf4WhOQd27zE10iCEM2YfyLjjcQgRANKHj3pBCFYcWWrDYTgxePnsh+BQUheqfnxVKYSEJJn7k/Lq7qDkLxTIiuaAkLyj21ZRjQFhGhBzfIDEIIXNZM3pFUUQYhWzH9oAyFYYVv4dA2EYEXN9KpoNAWEaMqVLbFHYBCiMSV3QQhe2O497QQhWHF/+m8Qghc1H4ZACF5cXRwCIVhR8urhNRCCFed2LzaDEKyYvzMMQrCiZv55MwjBCtvag04QghWPt46AELy4cgeEYMbyp04QghX3p59cAyFYUTMJQjBjfrENhGBFydKnZhCCFbbpNhCCFwuP9E4BAAAAAAAAAAAAAAAAAAAAAAAAAAAAcHjwNOidgkNEUShkdzIf/gmFtpu417kc9Z1Pft4JhQaY9afKRkOhkLvcpfcBHDTOkKQhngF+I0m7l3sdA0l2Jz/Xk2RXFeHpIhNY9U7/gUORkKbyCEmaAoFKslLv9B845AqpDgY9hPMU/auwx+Pqc+id/gMHW0j1xkx5ael4fZD+onGi215qP9PrZYRsh+v7S09aCKJibm7QWxUgTUXJLdj6OsZK7d2WRoKompnbcDrmiIqemVbLzEBpd5/eh1d4sIVUrCSKBp+FaOr2Jz47GSHRgJX5ui9xy6KF+JPFvK0oEF/NOF5N9JlIn9sfIzrM1lAlU8KEKvQ+voKDFtI+6KCxM0Jcvv3C2u71tCc+meO3rASmjpSQWPJm1dqyvzBSzwhhvNFCkr8o0/v4Co4zZBq7tyk8Qn83biVnq4ItpHGHIIIjcSH+utraGEn2ZAspipDReqKijiTdjBDS6ptjhPgHLI3ltEK9j6/gYAtJfDdoJn0uWoi5PHHHoYWMVxFON6eQfpIstRFEL31DiwuZocsfWoihiiA2mNwCyIMW0nK2n6YuIcRxpr//PV0UuDzxu1d0jkg+ZTVe5hRCZ4MB+r/WpBDmO1pIHQhRBrtQdyUrfD4XsV5nZD61N4AQLWEL6YiQ5tn3dUwOIQhPa9EsfUoHOYWYe/c3sC/EAUJyA1vIHP0PXYb4GSE25tsQSfZyCImS1vLqpqYmbzVThlymqyDdJHkKFcKUITsgRD5sIT30X70dlyO0EOfcXG99R4wzh3i/04/DZWNjY243MWgiY2enaisZlYiQyv6eIvp3Ab2Pr+BgC3GYyIjZFC9DXPRtyUzXJ8yebCHEeixZMyE8TC3FRFc/KvtQIfTzL7OdHr2Pr+CYMRrLqvY/nPU2jsVMZqMhZJz1BANGv8nkD9BlhdtopE9so91onCLWjcb3TroM98WYpbFKFxEso1c0x0bpUr6ixWhktkULMfnp5bExvQ+v8HCOjLhs+x/onFK9UTRYXO1ivnNazheddnjoRa6REaYJxMP81zgy4mHWbypeP120s8EsJsLrp3snmDWaRkaYiiUj5NTgetHURJOiNAG5Zv8pC8AFEIIZIAQzOoyGM9V6JwIAAAAApNAYDLc6HI7WcEWDV/3WAHU0Do7N+lZaYrFY5UrIMDt2OmzTO0mHGVtHC5nJuN6JOsS0dpHZFKnfrm6Ei+SBWc84S9TKIaRV72Sp4AwpD7feCWbhMXOlMVLIPcALWgjTRMNB1KN3wlRQ0EIcRs40Gpx6J0wFBS2knDuNlws5jlbIQmwh7jSOFXK7WCELqYqwklZpGOjyMT2/a/VOmBoKWcggki7rqYnEl03hKYveCVNDIQvZRtIVLWgLCIUs5HckXXa9E5MrClmIAUnXnN6JyRWOk5lE0XIyaylOYSJUCE7pyjFlyGGe0jsxgoAQzAAhmAFCMAOEpKhyBScmLC6XjBiFLSiwsClrYYPLFaZ3EXQJdLiTIcTFJLjY5WqUcSKagiIreFyWiURP5yy89P4swdwEOcWEVPwzYGgfDbW0BEZHDd/nJqQ1YDvs/GPWq4u63Gm1rvWZATe9h9EovYvQqM/wvnaHO1ooTYi3tfu9YZRJcMvoqM99tsMj7Tz0ugWixlXr3WV0GgMtK+2zcxnXTLC3322g9xcI+b7Xq5TBICTE1tDbnlkzic642E6KUotWwolvnDtMGLCY+ZgO0A7sO/DMGOmNxK/GqnB3GWeTk3nAgjixCFeVUqPtaBot41khepO7PuMU/pauZu078ExVkqQ/fgmVJpeVJhJsc4bn6kzoBlsGkyfAW1VcvsLa2anifAoJbkdJDgL9rCa6tJDKeFuqp8cQjwLWs4XUMafYFt4OMY2wgfixh0wkH6bLg1KFGDdSOurdnFuMjNaybkdpIT4P83dfdzuTKP8ES8gp5iidg/2GrG36T8YvF9eUPRTJXNaiOpPwC9ngO2GRdrQVOy3EvE7/2evb/1UPW8gKcz/v3m8TT6gLCJ1nf3myy5VUIcHLfr51rO0bSIrTQgKMqJmVSDr5aSHmCcLVv8K5ycgcbXEgypm7/et5EtI0xbm/BNEJLiFkkS2cbmUdZwsxOavXo+xUnxI+03anJCEt+zfKYLvQWqbBdLGVFkKGvY70TCKnWULI2pO8ZyBab+fN3QaVE/LxCak3kgIg0VZEyEA5ctG/Zwshe+3pq800xSy0C59p/4wkIYHE7ag1JLyaqSfVyRERMjeQPsxIN1uIAFb+my2rTMuhkAq/cJJ8qesAEWJCO+nUZQgxIwutcxknhhOjU5IQTzx/GEixraW6NCH7RROVyNOShAiiMiDLLcQpcjuhLzgOISx8ToK3GZz8LZ4JI6QwA1KEhOIrnRQ/UaHkYy3fhTBgy4kQo7qurdxC/jGJ7Tb11M4nZDQoICTeDu6IiezDXCFViFiGTuxUREiZMydCyHDuhTSWie7VmizX+YQELAJC3jMPjuEoKUykR4KQ+B3CLeVE+cPCQuo8uRGynXsh7AsuOsbUnW3Bf+rQx45kox2fkKiQEDfzEBz0xVZOzQ6cmXJYKpgc4ymu7/exsqadyf2eswkqkQWzZ1MwZaiF9StrYPbsFE33t1HW96ZubYSoa87kFNKDbn821d+/AW1w9HuFhJhn6/nLEP94K7NJ7875vsxnRE83a9doHVsgdHIGLZvN48XJB6qR06y+8vsVc24h5oGdJh4hkRb3WHkpd7XJFHKXl79nXcCG3AtB+5j70FouelIsAkJ8+3cHLiGR74JRuDFk1Xa+fbOFeN+j22fdMfrQTJ0IEHALce+HH7KFxAYSB+PJruhY23s88WWsTpW5F2JDhFtn0LWDyD2gh0+IuS51vrKFGL+JdFYPI6cwis5zyi/EhS76xt7cIJJi0wSPEL879UzMFhJZ+X0wFTIeZP/IbNhOR67Qy6gl50IqkO9M7L7lyFVykkdIe68ntXqWkFmHWEi8wZdeuxLt7cMvJIzcmPwZHYQ8dcjPpriFGHbSeZYlxDeDDs/yootM3wY9yG7WkUXq5v/mEjKBfBflXf0ypxDzOHpDYguxBiTUYquQMyhRiAW5YZzKLJXQGko/l5DKGbTigAiJ9Gc0AKE+MoKIxXkVchr5ro69OpI1DRxCzGXsIT4sIZUDUub1bfwmW4gDWfItMwfOIfcse7YQo51dbUCEJIJb3ELMGYeimxDkDHMIMfc6eVcn2x2SqrDVSIc4BUJ+z2zdmhIUEj2fMY73YAnJer5AhZyUlqBcCzmPPCRkCynN3D32QgK1LJAbPAjRRQg/IORgCnG6KsIWhFYkLgVCtBbidWyX+Sp5Q8sgRGMhDWV+wTYREKKpENt5o8guQIimQjYCYrsAIZoKEWsmBiHaCikS3wUI0VCIt0V8FyAkW0id2AaUCtkQ63MCQrQVchptdm3/vp0MzmwjTS4gREMh48gidzAdCM516KRDMNoLQlIg592ENp2rFPI9U8jMARCCNh6P5kmIF9lxO9rKp0BIK3JXyuzrbCtHbo3lBSoE3bpJbKCWQiFVSM+WOnQfCoRY0Db1jJFpVbPIz3oKVEg12i9abASKUiHIiVIrJOjj3Q0r90SKC1QIayiNm3O8Q3Wq5VPpLQuZry/kUSekGj0IUwfaUtyHuuLol1UgQtCRG6bsFxl56+3tybcV56RQR7pqNW4jEUeJQoha9BHaj3QWWWcNAdzvCFmAQhysSlugKOxqcNJUuYLh4qly5sxYU69cVyoE7Z4Tqog/GzldEydZnTKlCmllt6gY+88X9/WFW3vqWF9b9/s0FqAQT8ZwJKOvq4ymyxcyJlUlR9UqFvIPelW3fBuvHR93t2c0VUkV0pQ1XMdUWRnL/M5cXLBCbP1cExaz6OIaHyJHSDgjdMIVSZEqhAiLJZch2Su9AIUQFvGmCo9KIcSK2C5kCCHGxCNjgWSKC1GIbUbs8CLJDn+KhXTkUgjraYoTf6obayEKYYeaOEmeE+UNVO1iu5AhJP4mXiGsZ1PPXoUppOG7yE2gTLWQwRj3ltNVORlCiJ2QULkXG093GS1MIURDt/BASr9qIdWcudBU2q9ICBEWGBi50ot0ZC9QIfQR+ngzScTsTlbm1HQD6s/cgTXiayWcqUtdlhCCmDJyZhKr6XdWl3i8hdiNaTKHvDcO/j6aPb1ELOQ+i4zJ6RXYAPEbspBrBur6LrTm4TeMxTujdyV/MooOFXAj2+IZZ+LpcUczHFsrDeUZY3hmkA1lvZ1nPL2sZSpjGfK76Ah7URhZVqlKyEhxmuzhG96KjdMDdSv7Z60l1GX/bae1ghUArhLagAtZyPmaD4+j3xdjth0wjPW0ujLShM7SRFQg2+Kd56yxz1Frb9+3UtnuLu8t9mTtE9lQ1qxlwfQyS2YUD/mdJWMUQzWyTP0UTQAAAAAAAAAAAAAAAAAAAAAAAAAAAABwqPg/QOvOSERu+DwAAAAASUVORK5CYII=" parent="1" vertex="1">
          <mxGeometry x="432" y="89" width="79.59" height="77" as="geometry" />
        </mxCell>
        <mxCell id="ADXEEsySg-eswqSp0tY0-6" value="GitHub" style="text;html=1;strokeColor=none;fillColor=none;align=center;verticalAlign=middle;whiteSpace=wrap;rounded=0;" parent="1" vertex="1">
          <mxGeometry x="189.5" y="160" width="60" height="30" as="geometry" />
        </mxCell>
        <mxCell id="ADXEEsySg-eswqSp0tY0-8" value="" style="image;aspect=fixed;perimeter=ellipsePerimeter;html=1;align=center;shadow=0;dashed=0;spacingTop=3;image=img/lib/active_directory/internet_globe.svg;" parent="1" vertex="1">
          <mxGeometry x="612" y="408" width="50" height="50" as="geometry" />
        </mxCell>
        <mxCell id="ADXEEsySg-eswqSp0tY0-10" style="edgeStyle=orthogonalEdgeStyle;rounded=0;orthogonalLoop=1;jettySize=auto;html=1;entryX=1;entryY=0.5;entryDx=0;entryDy=0;" parent="1" source="ADXEEsySg-eswqSp0tY0-9" target="ADXEEsySg-eswqSp0tY0-8" edge="1">
          <mxGeometry relative="1" as="geometry" />
        </mxCell>
        <mxCell id="ADXEEsySg-eswqSp0tY0-9" value="" style="sketch=0;outlineConnect=0;fontColor=#232F3E;gradientColor=none;fillColor=#232F3D;strokeColor=none;dashed=0;verticalLabelPosition=bottom;verticalAlign=top;align=center;html=1;fontSize=12;fontStyle=0;aspect=fixed;pointerEvents=1;shape=mxgraph.aws4.users;" parent="1" vertex="1">
          <mxGeometry x="730" y="394" width="78" height="78" as="geometry" />
        </mxCell>
        <mxCell id="ADXEEsySg-eswqSp0tY0-11" style="edgeStyle=orthogonalEdgeStyle;rounded=0;orthogonalLoop=1;jettySize=auto;html=1;entryX=0;entryY=0.5;entryDx=0;entryDy=0;startArrow=classic;startFill=1;endArrow=none;endFill=0;" parent="1" source="ADXEEsySg-eswqSp0tY0-7" target="ADXEEsySg-eswqSp0tY0-8" edge="1">
          <mxGeometry relative="1" as="geometry" />
        </mxCell>
        <mxCell id="ADXEEsySg-eswqSp0tY0-12" style="edgeStyle=orthogonalEdgeStyle;rounded=0;orthogonalLoop=1;jettySize=auto;html=1;entryX=1;entryY=0.75;entryDx=0;entryDy=0;entryPerimeter=0;startArrow=classic;startFill=1;endArrow=none;endFill=0;" parent="1" source="ADXEEsySg-eswqSp0tY0-8" target="ADXEEsySg-eswqSp0tY0-7" edge="1">
          <mxGeometry relative="1" as="geometry">
            <Array as="points">
              <mxPoint x="556" y="453" />
            </Array>
          </mxGeometry>
        </mxCell>
        <mxCell id="ADXEEsySg-eswqSp0tY0-20" value="Internet" style="text;html=1;strokeColor=none;fillColor=none;align=center;verticalAlign=middle;whiteSpace=wrap;rounded=0;" parent="1" vertex="1">
          <mxGeometry x="586.5" y="472" width="101" height="30" as="geometry" />
        </mxCell>
        <mxCell id="ADXEEsySg-eswqSp0tY0-21" value="ユーザー" style="text;html=1;strokeColor=none;fillColor=none;align=center;verticalAlign=middle;whiteSpace=wrap;rounded=0;" parent="1" vertex="1">
          <mxGeometry x="718.5" y="472" width="101" height="30" as="geometry" />
        </mxCell>
        <mxCell id="ADXEEsySg-eswqSp0tY0-22" value="前後比較データ" style="text;html=1;strokeColor=none;fillColor=none;align=center;verticalAlign=middle;whiteSpace=wrap;rounded=0;" parent="1" vertex="1">
          <mxGeometry x="511" y="394" width="101" height="30" as="geometry" />
        </mxCell>
        <mxCell id="ADXEEsySg-eswqSp0tY0-23" value="比較結果データ" style="text;html=1;strokeColor=none;fillColor=none;align=center;verticalAlign=middle;whiteSpace=wrap;rounded=0;" parent="1" vertex="1">
          <mxGeometry x="511" y="458" width="101" height="30" as="geometry" />
        </mxCell>
        <mxCell id="IU0z4IoQcwbL9uTgJuqE-2" style="edgeStyle=orthogonalEdgeStyle;rounded=0;orthogonalLoop=1;jettySize=auto;html=1;entryX=0.5;entryY=0;entryDx=0;entryDy=0;entryPerimeter=0;" edge="1" parent="1" source="ADXEEsySg-eswqSp0tY0-6" target="IU0z4IoQcwbL9uTgJuqE-1">
          <mxGeometry relative="1" as="geometry" />
        </mxCell>
        <mxCell id="IU0z4IoQcwbL9uTgJuqE-5" value="GitHub&lt;br&gt;Actions" style="text;html=1;strokeColor=none;fillColor=none;align=center;verticalAlign=middle;whiteSpace=wrap;rounded=0;" vertex="1" parent="1">
          <mxGeometry x="220" y="200" width="60" height="30" as="geometry" />
        </mxCell>
      </root>
    </mxGraphModel>
  </diagram>
</mxfile>
